<svg width="24" height="24" viewBox="0 0 24 24" fill="none" xmlns="http://www.w3.org/2000/svg">
<path fill-rule="evenodd" clip-rule="evenodd" d="M11.5763 1.45088C11.8106 1.21657 12.1905 1.21657 12.4249 1.45088L16.9249 5.95088C17.1592 6.1852 17.1592 6.56509 16.9249 6.79941C16.6905 7.03372 16.3106 7.03372 16.0763 6.79941L12.6004 3.32348V13.1251C12.6004 13.4565 12.3318 13.7251 12.0004 13.7251C11.669 13.7251 11.4004 13.4565 11.4004 13.1251V3.32387L7.92485 6.79941C7.69054 7.03373 7.31064 7.03373 7.07632 6.79941C6.84201 6.5651 6.84201 6.1852 7.07632 5.95088L11.5763 1.45088ZM4.12539 11.3501C3.83544 11.3501 3.60039 11.5852 3.60039 11.8751V21.0001C3.60039 21.2901 3.83544 21.5251 4.12539 21.5251H19.8754C20.1653 21.5251 20.4004 21.2901 20.4004 21.0001V11.8751C20.4004 11.5852 20.1653 11.3501 19.8754 11.3501H17.6254C17.294 11.3501 17.0254 11.0815 17.0254 10.7501C17.0254 10.4188 17.294 10.1501 17.6254 10.1501H19.8754C20.8281 10.1501 21.6004 10.9225 21.6004 11.8751V21.0001C21.6004 21.9528 20.8281 22.7251 19.8754 22.7251H4.12539C3.1727 22.7251 2.40039 21.9528 2.40039 21.0001V11.8751C2.40039 10.9225 3.1727 10.1501 4.12539 10.1501H6.37539C6.70676 10.1501 6.97539 10.4188 6.97539 10.7501C6.97539 11.0815 6.70676 11.3501 6.37539 11.3501H4.12539Z" fill="#101010"/>
</svg>
